<svg width="42" height="42" viewBox="0 0 42 42" fill="none" xmlns="http://www.w3.org/2000/svg">
<path d="M38.5 29.6099V34.8599C38.502 35.3473 38.4021 35.8297 38.2069 36.2763C38.0116 36.7228 37.7253 37.1237 37.3661 37.4532C37.007 37.7827 36.583 38.0335 36.1213 38.1897C35.6596 38.3458 35.1704 38.4038 34.685 38.3599C29.3 37.7748 24.1273 35.9347 19.5825 32.9874C15.3542 30.3006 11.7693 26.7157 9.08251 22.4874C6.12497 17.922 4.28443 12.7242 3.71001 7.31493C3.66627 6.83099 3.72379 6.34326 3.87888 5.88277C4.03398 5.42228 4.28325 4.99913 4.61085 4.64026C4.93844 4.28139 5.33716 3.99467 5.78164 3.79834C6.22611 3.60201 6.7066 3.50038 7.19251 3.49993H12.4425C13.2918 3.49157 14.1151 3.79231 14.7591 4.34611C15.403 4.8999 15.8236 5.66896 15.9425 6.50993C16.1641 8.19004 16.575 9.8397 17.1675 11.4274C17.403 12.0538 17.4539 12.7345 17.3143 13.389C17.1748 14.0434 16.8505 14.6441 16.38 15.1199L14.1575 17.3424C16.6487 21.7236 20.2763 25.3512 24.6575 27.8424L26.88 25.6199C27.3558 25.1494 27.9565 24.8252 28.611 24.6856C29.2654 24.546 29.9461 24.597 30.5725 24.8324C32.1602 25.4249 33.8099 25.8358 35.49 26.0574C36.3401 26.1774 37.1165 26.6055 37.6714 27.2605C38.2264 27.9155 38.5213 28.7517 38.5 29.6099Z" stroke="#1E1E1E" stroke-width="4" stroke-linecap="round" stroke-linejoin="round"/>
</svg>
