<svg width="42" height="42" viewBox="0 0 42 42" fill="none" xmlns="http://www.w3.org/2000/svg">
<g clip-path="url(#clip0_9_216)">
<path d="M36.75 17.5C36.75 29.75 21 40.25 21 40.25C21 40.25 5.25 29.75 5.25 17.5C5.25 13.3228 6.90937 9.31677 9.86307 6.36307C12.8168 3.40937 16.8228 1.75 21 1.75C25.1772 1.75 29.1832 3.40937 32.1369 6.36307C35.0906 9.31677 36.75 13.3228 36.75 17.5Z" stroke="#1E1E1E" stroke-width="4" stroke-linecap="round" stroke-linejoin="round"/>
<path d="M21 22.75C23.8995 22.75 26.25 20.3995 26.25 17.5C26.25 14.6005 23.8995 12.25 21 12.25C18.1005 12.25 15.75 14.6005 15.75 17.5C15.75 20.3995 18.1005 22.75 21 22.75Z" stroke="#1E1E1E" stroke-width="4" stroke-linecap="round" stroke-linejoin="round"/>
</g>
<defs>
<clipPath id="clip0_9_216">
<rect width="42" height="42" fill="white"/>
</clipPath>
</defs>
</svg>
