<svg width="26" height="26" viewBox="0 0 26 26" fill="none" xmlns="http://www.w3.org/2000/svg">
<path d="M24.9166 3.24991C23.8792 3.98167 22.7305 4.54136 21.5149 4.90741C20.8625 4.15721 19.9954 3.62549 19.0309 3.38416C18.0664 3.14283 17.051 3.20354 16.1222 3.55807C15.1933 3.91259 14.3957 4.54384 13.8373 5.36643C13.2789 6.18903 12.9866 7.16327 12.9999 8.15741V9.24074C11.0961 9.29011 9.20963 8.86787 7.50851 8.01164C5.80739 7.15541 4.34443 5.89176 3.24992 4.33324C3.24992 4.33324 -1.08341 14.0832 8.66658 18.4166C6.43549 19.931 3.77767 20.6904 1.08325 20.5832C10.8333 25.9999 22.7499 20.5832 22.7499 8.12491C22.7489 7.82315 22.7199 7.52213 22.6633 7.22574C23.7689 6.13536 24.5491 4.75868 24.9166 3.24991Z" stroke="#1E1E1E" stroke-width="2" stroke-linecap="round" stroke-linejoin="round"/>
</svg>
