<svg width="26" height="26" viewBox="0 0 26 26" fill="none" xmlns="http://www.w3.org/2000/svg">
<path d="M24.4184 6.95492C24.2897 6.44078 24.0276 5.9697 23.6586 5.58928C23.2896 5.20885 22.8267 4.93254 22.3167 4.78825C20.4534 4.33325 13 4.33325 13 4.33325C13 4.33325 5.54672 4.33325 3.68338 4.83159C3.1734 4.97587 2.71053 5.25218 2.34151 5.63261C1.97249 6.01304 1.7104 6.48411 1.58172 6.99825C1.2407 8.88927 1.07389 10.8076 1.08338 12.7291C1.07123 14.665 1.23805 16.598 1.58172 18.5033C1.72359 19.0014 1.99155 19.4546 2.35971 19.8189C2.72786 20.1833 3.18377 20.4465 3.68338 20.5833C5.54672 21.0816 13 21.0816 13 21.0816C13 21.0816 20.4534 21.0816 22.3167 20.5833C22.8267 20.439 23.2896 20.1627 23.6586 19.7822C24.0276 19.4018 24.2897 18.9307 24.4184 18.4166C24.7568 16.5398 24.9236 14.6361 24.9167 12.7291C24.9289 10.7931 24.7621 8.86017 24.4184 6.95492Z" stroke="#1E1E1E" stroke-width="2" stroke-linecap="round" stroke-linejoin="round"/>
<path d="M10.5625 16.2716L16.7917 12.7291L10.5625 9.18658V16.2716Z" stroke="#1E1E1E" stroke-width="2" stroke-linecap="round" stroke-linejoin="round"/>
</svg>
