<svg width="26" height="26" viewBox="0 0 26 26" fill="none" xmlns="http://www.w3.org/2000/svg">
<path d="M18.9584 7.04175H18.9692M7.58341 2.16675H18.4167C21.4083 2.16675 23.8334 4.59187 23.8334 7.58341V18.4167C23.8334 21.4083 21.4083 23.8334 18.4167 23.8334H7.58341C4.59187 23.8334 2.16675 21.4083 2.16675 18.4167V7.58341C2.16675 4.59187 4.59187 2.16675 7.58341 2.16675ZM17.3334 12.3176C17.4671 13.2192 17.3131 14.14 16.8933 14.949C16.4735 15.758 15.8093 16.4141 14.9952 16.8239C14.181 17.2337 13.2584 17.3763 12.3585 17.2315C11.4586 17.0867 10.6273 16.6618 9.98282 16.0173C9.33833 15.3728 8.91346 14.5415 8.76865 13.6416C8.62385 12.7418 8.76649 11.8191 9.17627 11.005C9.58605 10.1908 10.2421 9.52663 11.0511 9.10684C11.8602 8.68705 12.781 8.53305 13.6826 8.66675C14.6022 8.80312 15.4537 9.23167 16.1111 9.88908C16.7685 10.5465 17.197 11.3979 17.3334 12.3176Z" stroke="#1E1E1E" stroke-width="2" stroke-linecap="round" stroke-linejoin="round"/>
</svg>
